<svg version="1.2" xmlns="http://www.w3.org/2000/svg" viewBox="0 0 512 512" width="512" height="512">
	<title>logo-linkedin-svg</title>
	<style>
		.s0 { fill: #333333 } 
	</style>
	<path id="Layer" fill-rule="evenodd" class="s0" d="m480 66.9v374.7c0 20.2-15.4 38.4-35.9 38.4h-373.8c-20.5 0-38.3-18.1-38.3-38.4v-374.7c0-20.2 17.8-34.9 38.3-34.9h373.9c20.4 0 35.9 14.7 35.8 34.9zm-309.1 139h-64.2v199.5h64.2zm4.8-64.7c-0.5-19.6-13.4-34.5-34.4-34.5-21 0-34.6 15-34.6 34.5 0 19.1 13.3 34.4 33.8 34.4h0.5c21.3 0 34.7-15.3 34.7-34.4zm229.7 147.7c0-59.9-31.8-87.6-74-87.6-33.9 0-48.5 19.1-57.8 32.4v-27.8h-64.2v199.6h64.2v-113.7c0-5.8 0.4-11.5 2.2-15.7 4.6-11.7 15.1-23.7 32.9-23.7 23.2 0 32.6 17.8 32.6 44v109.1h64.1z"/>
</svg>